HIERARCHY
ROOT hip
{
	OFFSET 0.000000 0.000000 0.000000 
	CHANNELS 6 Xposition Yposition Zposition Xrotation Zrotation Yrotation
	JOINT abdomen
	{
		OFFSET 0.000000 3.402643 0.000000 
		CHANNELS 3 Xrotation Zrotation Yrotation
		JOINT chest
		{
			OFFSET 0.000000 8.438565 -0.680529 
			CHANNELS 3 Xrotation Zrotation Yrotation
			JOINT neck
			{
				OFFSET 0.000000 10.207942 -0.272212 
				CHANNELS 3 Xrotation Zrotation Yrotation
				JOINT head
				{
					OFFSET 0.000000 3.130431 0.000000 
					CHANNELS 3 Xrotation Zrotation Yrotation
					End Site
					{
						OFFSET 0.000000 3.130435 0.000000 
					}
				}
			}
			JOINT lCollar
			{
				OFFSET 3.470700 6.669187 -0.816635 
				CHANNELS 3 Yrotation Zrotation Xrotation
				JOINT lShldr
				{
					OFFSET 3.198488 0.000000 0.000000 
					CHANNELS 3 Zrotation Yrotation Xrotation
					JOINT lForeArm
					{
						OFFSET 10.139888 0.000000 0.000000 
						CHANNELS 3 Yrotation Zrotation Xrotation
						JOINT lHand
						{
							OFFSET 8.370511 0.000000 0.000000 
							CHANNELS 3 Zrotation Yrotation Xrotation
							End Site
							{
								OFFSET 4.083176 0.000000 0.000000 
							}
						}
					}
				}
			}
			JOINT rCollar
			{
				OFFSET -3.470700 6.669187 -0.816635 
				CHANNELS 3 Yrotation Zrotation Xrotation
				JOINT rShldr
				{
					OFFSET -3.198488 0.000000 0.000000 
					CHANNELS 3 Zrotation Yrotation Xrotation
					JOINT rForeArm
					{
						OFFSET -10.139888 0.000000 0.000000 
						CHANNELS 3 Yrotation Zrotation Xrotation
						JOINT rHand
						{
							OFFSET -8.370511 0.000000 0.000000 
							CHANNELS 3 Zrotation Yrotation Xrotation
							End Site
							{
								OFFSET -4.083176 0.000000 0.000000 
							}
						}
					}
				}
			}
		}
	}
	JOINT lThigh
	{
		OFFSET 5.308129 -1.633274 1.361059 
		CHANNELS 3 Xrotation Zrotation Yrotation
		JOINT lShin
		{
			OFFSET -2.041588 -20.007561 0.000000 
			CHANNELS 3 Xrotation Zrotation Yrotation
			JOINT lFoot
			{
				OFFSET 0.000000 -19.190928 -1.224953 
				CHANNELS 3 Xrotation Yrotation Zrotation
				End Site
				{
					OFFSET 0.000000 -2.449906 4.627600 
				}
			}
		}
	}
	JOINT rThigh
	{
		OFFSET -5.308129 -1.633274 1.361059 
		CHANNELS 3 Xrotation Zrotation Yrotation
		JOINT rShin
		{
			OFFSET 2.041588 -20.007561 0.000000 
			CHANNELS 3 Xrotation Zrotation Yrotation
			JOINT rFoot
			{
				OFFSET 0.000000 -19.190928 -1.224953 
				CHANNELS 3 Xrotation Yrotation Zrotation
				End Site
				{
					OFFSET 0.000000 -2.449906 4.627600 
				}
			}
		}
	}
}
MOTION
Frames: 18
Frame Time: 0.016667
-0.029249 15.030670 -14.787832 -53.448479 -3.738123 -1.928010 69.207527 1.561047 6.825981 3.509676 2.490185 -1.670005 -14.661168 -9.198007 1.813773 4.529868 -4.167638 1.899456 -2.807457 3.869726 0.192452 30.458010 -41.189358 -45.000000 -25.996954 5.000000 -30.082609 -33.475883 11.876829 34.137676 7.909864 -17.726940 0.948731 -44.099232 52.268837 -45.000000 16.048702 -5.000000 -45.000000 24.808744 -30.000000 34.948589 -81.235519 26.678556 -7.106751 140.098907 2.521716 -2.042075 -1.103453 26.156385 -10.298546 -71.782570 -13.866850 7.779142 143.767334 6.419764 -4.032310 -13.589950 16.839308 -7.581354 
-0.035110 15.013245 -14.802338 -53.418499 -3.816269 -1.898779 69.212234 1.601349 6.865563 3.512349 2.548795 -1.591941 -14.683510 -9.235119 1.829140 4.503418 -4.167732 1.859787 -2.836884 3.908741 0.194465 30.425104 -41.200466 -45.000000 -25.966246 5.000000 -30.110243 -33.474564 11.794508 34.125168 7.805162 -17.882959 0.959789 -44.076427 52.286606 -45.000000 16.002005 -5.000000 -45.000000 24.777546 -30.000000 35.082615 -81.339836 26.648520 -7.263508 140.051819 2.502221 -2.021437 -1.075561 25.995605 -10.141781 -71.814346 -13.856986 7.783932 143.750931 6.465760 -4.041219 -13.551558 16.953724 -7.536830 
-0.041008 14.987103 -14.827291 -53.355080 -3.845741 -1.811086 69.224213 1.631354 6.900839 3.516596 2.578110 -1.435349 -14.769531 -9.127469 1.822606 4.392600 -4.226841 1.615582 -2.954608 4.064802 0.202514 30.421612 -41.240189 -45.000000 -25.939314 5.000000 -30.183426 -33.456768 11.834825 34.158100 7.513391 -17.951218 0.963324 -44.191978 52.259552 -45.000000 15.914899 -5.000000 -45.000000 24.724642 -30.000000 35.302200 -81.476227 26.560627 -7.323950 140.004837 2.492424 -1.984713 -1.243174 25.804790 -9.877071 -71.882210 -13.896059 7.823693 143.746964 6.526576 -4.071004 -13.525076 17.057543 -7.508330 
-0.046935 14.955161 -14.859211 -53.265667 -3.855762 -1.683765 69.212875 1.645460 6.913580 3.531598 2.607419 -1.230388 -14.901291 -8.923309 1.799949 4.212824 -4.325156 1.243330 -3.141002 4.298895 0.214585 30.434069 -41.311020 -45.000000 -25.914194 5.000000 -30.284304 -33.426689 11.968076 34.229511 7.103407 -17.960970 0.963829 -44.389893 52.212887 -45.000000 15.794788 -5.000000 -45.000000 24.645041 -30.000000 35.570347 -81.642113 26.453022 -7.328508 139.937485 2.463104 -1.996098 -1.463669 25.626316 -9.566841 -71.976120 -13.964355 7.866019 143.731171 6.602489 -4.143846 -13.491149 17.126513 -7.496865 
-0.052857 14.922053 -14.890552 -53.176834 -3.846242 -1.556442 69.210121 1.671224 6.905550 3.545821 2.636719 -1.054259 -15.043469 -8.738451 1.781750 4.051301 -4.393979 0.910771 -3.259779 4.512916 0.235366 30.456398 -41.377842 -45.000000 -25.877995 5.000000 -30.396456 -33.421421 12.085429 34.324692 6.723235 -17.999975 0.965848 -44.561134 52.171310 -45.000000 15.705198 -5.000000 -45.000000 24.582670 -30.000000 35.791981 -81.795509 26.337561 -7.300407 139.859909 2.453417 -1.992286 -1.705627 25.407843 -9.180534 -72.096046 -14.062385 7.909635 143.724304 6.642479 -4.218515 -13.449611 17.218721 -7.430793 
-0.058775 14.884308 -14.919560 -53.101288 -3.797714 -1.390141 69.221138 1.710485 6.825619 3.565823 2.675781 -1.044498 -15.259994 -8.647122 1.797232 3.928090 -4.394172 0.734010 -3.162938 4.707966 0.245416 30.511845 -41.484768 -45.000000 -25.791349 5.000000 -30.545469 -33.499512 12.115190 34.472206 6.500526 -18.107237 0.971398 -44.616283 52.150185 -45.000000 15.696897 -5.000000 -45.000000 24.607042 -30.000000 35.878529 -81.893219 26.181566 -7.181151 139.772049 2.447179 -1.996768 -2.073426 25.223597 -8.530660 -72.262253 -14.198889 7.973270 143.677856 6.692380 -4.262918 -13.274577 17.245008 -7.451908 
-0.064690 14.846563 -14.948565 -53.035023 -3.758911 -1.223839 69.232941 1.762813 6.740176 3.576534 2.714843 -1.024983 -15.487355 -8.544652 1.820807 3.804975 -4.384558 0.557998 -3.056323 4.893264 0.254960 30.560097 -41.586651 -45.000000 -25.706976 5.000000 -30.688562 -33.582336 12.138760 34.625168 6.287771 -18.224253 0.977449 -44.696835 52.114880 -45.000000 15.690490 -5.000000 -45.000000 24.627361 -30.000000 35.971214 -81.977356 26.033978 -7.047868 139.674332 2.453353 -1.986560 -2.457433 25.032104 -7.883939 -72.421783 -14.315825 8.041957 143.609650 6.733912 -4.315955 -13.141970 17.222507 -7.471519 
-0.075231 14.808819 -14.972908 -52.944996 -3.729764 -1.116005 69.233307 1.826955 6.703671 3.565832 2.695313 -1.044495 -15.692829 -8.464465 1.828223 3.620433 -4.345586 0.420935 -2.930163 5.068810 0.264863 30.611067 -41.639275 -45.000000 -25.676336 5.000000 -30.713869 -33.555946 12.150498 34.647644 6.172687 -18.341267 0.986569 -44.596344 52.072845 -45.000000 15.781689 -5.000000 -45.000000 24.677795 -30.000000 35.704979 -82.152405 25.965477 -7.000095 139.614166 2.453364 -2.025438 -2.574278 24.872633 -7.553770 -72.621490 -14.394162 8.053185 143.614029 6.778043 -4.344628 -13.299413 17.245033 -7.438856 
-0.086924 14.771080 -14.996079 -52.853878 -3.720118 -1.017920 69.224464 1.875184 6.673441 3.544922 2.656250 -1.073766 -15.897953 -8.374625 1.834183 3.424468 -4.306580 0.303346 -2.813751 5.234603 0.273426 30.670818 -41.673191 -45.000000 -25.641651 5.000000 -30.724899 -33.504295 12.154869 34.638016 6.077327 -18.468035 0.993136 -44.477768 52.002583 -45.000000 15.900592 -5.000000 -45.000000 24.738022 -30.000000 35.372284 -82.365623 25.925907 -6.957522 139.581329 2.512105 -2.036759 -2.560895 24.648018 -7.371756 -72.794388 -14.452805 8.067695 143.632568 6.816342 -4.334914 -13.543712 17.239653 -7.375818 
-0.093969 14.732168 -15.018121 -52.752968 -3.710461 -0.920468 69.216431 1.933159 6.652966 3.533817 2.617187 -1.093719 -16.083197 -8.275139 1.838689 3.238171 -4.248024 0.185761 -2.697412 5.410147 0.282491 30.749256 -41.716240 -45.000000 -25.600607 5.000000 -30.727669 -33.418755 12.087260 34.729614 5.923215 -18.585045 0.999193 -44.450695 51.963280 -45.000000 15.961574 -5.000000 -45.000000 24.780293 -30.000000 35.150963 -82.584373 25.868525 -6.946186 139.529007 2.525177 -2.109110 -2.615103 24.495768 -7.171183 -72.991714 -14.511283 8.130984 143.682114 6.875653 -4.342286 -13.684668 17.204525 -7.362561 
-0.094039 14.691527 -15.038443 -52.631992 -3.691018 -0.832128 69.197105 1.990068 6.628967 3.532508 2.587889 -1.093690 -16.268084 -8.165998 1.841740 3.059983 -4.179683 0.087657 -2.590817 5.575939 0.291050 30.842712 -41.747105 -45.000000 -25.520828 5.000000 -30.724615 -33.255428 11.916311 34.971107 5.681047 -18.692308 1.004742 -44.563862 51.932877 -45.000000 15.935569 -5.000000 -45.000000 24.803112 -30.000000 35.097126 -82.825256 25.789307 -6.916698 139.480026 2.541329 -2.089514 -2.805804 24.387215 -6.910814 -73.185120 -14.599234 8.310099 143.765182 6.926591 -4.300153 -13.732167 17.301977 -7.325779 
-0.094107 14.650877 -15.058768 -52.521236 -3.681340 -0.734046 69.166908 2.037894 6.601539 3.541010 2.548825 -1.093663 -16.444214 -8.045718 1.852891 2.892029 -4.111327 -0.020181 -2.484300 5.751485 0.300109 30.947231 -41.783638 -45.000000 -25.447416 5.000000 -30.729717 -33.098621 11.737494 35.215237 5.438712 -18.789820 1.009784 -44.679420 51.911160 -45.000000 15.912078 -5.000000 -45.000000 24.820589 -30.000000 35.037151 -83.038261 25.691360 -6.901494 139.441956 2.521837 -2.088113 -3.042518 24.342430 -6.638255 -73.377708 -14.667510 8.446095 143.844162 6.989956 -4.297541 -13.806027 17.310242 -7.312928 
-0.091310 14.616053 -15.087812 -52.457058 -3.720330 -0.812641 69.216942 1.961464 6.652556 3.555564 2.568359 -1.015207 -16.691805 -8.021947 1.880006 2.691077 -4.072237 -0.215688 -2.436247 5.897772 0.307657 30.961189 -41.818085 -45.000000 -25.452906 5.000000 -30.642462 -32.357243 11.522295 35.308903 5.148471 -18.936087 1.020510 -44.858875 51.866486 -45.000000 15.927919 -5.000000 -45.000000 24.904705 -30.000000 34.794601 -83.217659 25.799707 -7.186100 139.449280 2.433836 -2.016591 -2.929801 23.760036 -6.713851 -73.469788 -14.599039 8.703405 143.881363 7.004179 -4.333624 -13.592511 17.807865 -6.956267 
-0.088512 14.581239 -15.116860 -52.392776 -3.759313 -0.890601 69.257439 1.881540 6.712669 3.569750 2.587885 -0.956710 -16.939375 -7.998171 1.905756 2.490617 -4.042860 -0.421631 -2.388214 6.044059 0.315202 30.966400 -41.850441 -45.000000 -25.456024 5.000000 -30.566175 -31.620958 11.299560 35.408184 4.848491 -19.082352 1.028083 -45.052513 51.805332 -45.000000 15.946110 -5.000000 -45.000000 24.987541 -30.000000 34.558720 -83.401764 25.896912 -7.503876 139.477798 2.316680 -1.948159 -2.877562 23.212156 -6.755798 -73.563400 -14.521416 8.961885 143.914291 7.044748 -4.372249 -13.429947 18.228767 -6.610694 
-0.085703 14.560355 -15.142430 -52.325317 -3.788466 -1.017922 69.277618 1.717437 6.815579 3.592402 2.597642 -0.878654 -17.153667 -7.898685 1.910274 2.301992 -4.032939 -0.656111 -2.377992 6.151742 0.311033 31.054117 -41.933254 -45.000000 -25.463217 5.000000 -30.504244 -31.213097 11.185101 35.524536 4.523772 -19.131880 1.021409 -45.175781 51.779099 -45.000000 15.987381 -5.000000 -45.000000 25.042353 -30.000000 34.398247 -83.500755 26.034002 -7.642692 139.503204 2.238580 -1.910335 -2.853933 22.842865 -6.733716 -73.617760 -14.374613 9.124511 143.892395 7.102316 -4.422347 -13.277518 18.441565 -6.510666 
-0.082885 14.548774 -15.165681 -52.246414 -3.798033 -1.174476 69.277084 1.494304 6.946000 3.604423 2.607400 -0.800135 -17.346758 -7.750947 1.907493 2.126116 -4.042438 -0.930245 -2.407822 6.249270 0.316063 31.202978 -42.044178 -45.000000 -25.457163 5.000000 -30.464525 -31.031424 11.131999 35.658863 4.181791 -19.122068 1.020900 -45.259972 51.761238 -45.000000 16.042747 -5.000000 -45.000000 25.063362 -30.000000 34.291302 -83.585854 26.209059 -7.689169 139.496918 2.209436 -1.862558 -2.751876 22.516100 -6.721095 -73.688271 -14.198828 9.200558 143.852249 7.170436 -4.464181 -13.150506 18.478127 -6.565586 
-0.080099 14.544740 -15.196494 -52.149872 -3.807614 -1.301797 69.258064 1.322679 7.057775 3.623915 2.597635 -0.780606 -17.570410 -7.641812 1.910557 1.946378 -4.061691 -1.145934 -2.388561 6.298030 0.318578 31.329651 -42.112301 -45.000000 -25.494156 5.000000 -30.445162 -30.885469 11.105257 35.750877 3.892014 -19.111605 1.029597 -45.463982 51.777088 -45.000000 16.042011 -5.000000 -45.000000 25.039688 -30.000000 34.374092 -83.620110 26.347174 -7.697155 139.442413 2.154099 -1.837131 -2.731669 22.223024 -6.645415 -73.731117 -14.042867 9.336815 143.759277 7.275441 -4.493781 -13.177028 18.557650 -6.562763 
-0.077431 14.570951 -15.257529 -51.966499 -3.768590 -1.282307 69.178864 1.378236 7.081578 3.685553 2.548825 -0.966449 -17.884268 -7.729363 1.983853 1.762709 -4.120258 -1.155680 -2.163414 6.200468 0.313547 31.368763 -42.058170 -45.000000 -25.660225 5.000000 -30.491354 -30.897755 11.161090 35.680515 3.751919 -19.112246 1.020390 -46.095654 51.952900 -45.000000 15.806190 -5.000000 -45.000000 24.722754 -30.000000 35.319931 -83.571495 26.317734 -7.583903 139.195999 2.062857 -1.771574 -2.868906 22.044626 -6.429668 -73.750351 -14.033218 9.426948 143.552902 7.365108 -4.597166 -13.703926 18.843586 -6.230680 
